<svg xmlns="http://www.w3.org/2000/svg" xmlns:xlink="http://www.w3.org/1999/xlink" width="48" zoomAndPan="magnify" viewBox="0 0 36 36.000001" height="48" preserveAspectRatio="xMidYMid meet" version="1.0"><defs><clipPath id="0f1cebd02e"><path d="M 0.488281 0 L 35.511719 0 L 35.511719 35.027344 L 0.488281 35.027344 Z M 0.488281 0 " clip-rule="nonzero"/></clipPath><clipPath id="a57d6788a7"><path d="M 11.433594 0 L 24.566406 0 C 30.613281 0 35.511719 4.902344 35.511719 10.945312 L 35.511719 24.082031 C 35.511719 30.125 30.613281 35.027344 24.566406 35.027344 L 11.433594 35.027344 C 5.386719 35.027344 0.488281 30.125 0.488281 24.082031 L 0.488281 10.945312 C 0.488281 4.902344 5.386719 0 11.433594 0 Z M 11.433594 0 " clip-rule="nonzero"/></clipPath><clipPath id="ab68805955"><path d="M 4.023438 2.492188 L 31.75 2.492188 L 31.75 33.140625 L 4.023438 33.140625 Z M 4.023438 2.492188 " clip-rule="nonzero"/></clipPath><clipPath id="9fd712286d"><path d="M 4.023438 2.492188 L 31.75 2.492188 L 31.75 26 L 4.023438 26 Z M 4.023438 2.492188 " clip-rule="nonzero"/></clipPath><clipPath id="3ca3374d24"><path d="M 17 10 L 31.75 10 L 31.75 26 L 17 26 Z M 17 10 " clip-rule="nonzero"/></clipPath><clipPath id="dc79579819"><path d="M 2.53125 0.84375 L 33.179688 0.84375 L 33.179688 35 L 2.53125 35 Z M 2.53125 0.84375 " clip-rule="nonzero"/></clipPath><clipPath id="da175b5d29"><path d="M 2.53125 0.84375 L 33 0.84375 L 33 27 L 2.53125 27 Z M 2.53125 0.84375 " clip-rule="nonzero"/></clipPath><clipPath id="e463173de6"><path d="M 17 9 L 33.179688 9 L 33.179688 27 L 17 27 Z M 17 9 " clip-rule="nonzero"/></clipPath><clipPath id="266bc77ad8"><path d="M 4.117188 2.109375 L 31.65625 2.109375 L 31.65625 32.550781 L 4.117188 32.550781 Z M 4.117188 2.109375 " clip-rule="nonzero"/></clipPath><clipPath id="214774ae5f"><path d="M 4.117188 2.109375 L 31.65625 2.109375 L 31.65625 25.882812 L 4.117188 25.882812 Z M 4.117188 2.109375 " clip-rule="nonzero"/></clipPath><clipPath id="079cc4e5c5"><path d="M 17.007812 9 L 31.65625 9 L 31.65625 25.882812 L 17.007812 25.882812 Z M 17.007812 9 " clip-rule="nonzero"/></clipPath><clipPath id="f388cc1117"><path d="M 15 6.605469 L 21 6.605469 L 21 18 L 15 18 Z M 15 6.605469 " clip-rule="nonzero"/></clipPath></defs><g clip-path="url(#0f1cebd02e)"><g clip-path="url(#a57d6788a7)"><path fill="#f4f2ed" d="M 0.488281 0 L 35.511719 0 L 35.511719 35.027344 L 0.488281 35.027344 Z M 0.488281 0 " fill-opacity="1" fill-rule="nonzero"/></g></g><g clip-path="url(#ab68805955)"><path fill="#2c0030" d="M 17.191406 2.773438 C 17.6875 2.492188 18.300781 2.492188 18.796875 2.773438 C 21.253906 4.152344 28.640625 8.300781 31.097656 9.679688 C 31.597656 9.957031 31.902344 10.472656 31.902344 11.027344 C 31.902344 13.785156 31.902344 22.082031 31.902344 24.839844 C 31.902344 25.398438 31.597656 25.910156 31.097656 26.191406 C 28.644531 27.570312 21.253906 31.71875 18.796875 33.097656 C 18.300781 33.375 17.6875 33.375 17.191406 33.097656 C 14.734375 31.71875 7.347656 27.570312 4.890625 26.191406 C 4.394531 25.910156 4.085938 25.398438 4.085938 24.839844 C 4.085938 22.082031 4.085938 13.785156 4.085938 11.03125 C 4.085938 10.472656 4.394531 9.957031 4.890625 9.679688 C 7.347656 8.300781 14.738281 4.152344 17.191406 2.773438 Z M 17.191406 2.773438 " fill-opacity="1" fill-rule="evenodd"/></g><g clip-path="url(#9fd712286d)"><path fill="#77228b" d="M 4.308594 25.550781 C 4.117188 25.289062 4.085938 25.042969 4.085938 24.707031 C 4.085938 21.96875 4.085938 13.71875 4.085938 10.976562 C 4.085938 10.421875 4.394531 9.910156 4.886719 9.632812 C 7.335938 8.265625 14.699219 4.140625 17.148438 2.769531 C 17.644531 2.492188 18.3125 2.496094 18.808594 2.773438 C 21.257812 4.144531 28.597656 8.234375 31.042969 9.605469 C 31.242188 9.714844 31.390625 9.847656 31.527344 10.027344 Z M 4.308594 25.550781 " fill-opacity="1" fill-rule="evenodd"/></g><path fill="#ffffff" d="M 17.996094 7.6875 C 23.652344 7.6875 28.242188 12.277344 28.242188 17.933594 C 28.242188 23.589844 23.652344 28.179688 17.996094 28.179688 C 12.339844 28.179688 7.746094 23.589844 7.746094 17.933594 C 7.746094 12.277344 12.339844 7.6875 17.996094 7.6875 Z M 17.996094 12.8125 C 20.824219 12.8125 23.117188 15.105469 23.117188 17.933594 C 23.117188 20.761719 20.824219 23.058594 17.996094 23.058594 C 15.167969 23.058594 12.871094 20.761719 12.871094 17.933594 C 12.871094 15.105469 15.167969 12.8125 17.996094 12.8125 Z M 17.996094 12.8125 " fill-opacity="1" fill-rule="evenodd"/><g clip-path="url(#3ca3374d24)"><path fill="#531659" d="M 31.523438 10.03125 C 31.902344 10.386719 31.894531 10.917969 31.894531 11.339844 C 31.894531 14.117188 31.871094 22.015625 31.902344 24.792969 C 31.90625 25.085938 31.808594 25.390625 31.664062 25.621094 L 17.695312 17.933594 Z M 31.523438 10.03125 " fill-opacity="1" fill-rule="evenodd"/></g><path fill="#ffffff" d="M 25.3125 15.007812 L 26.046875 15.007812 L 26.046875 20.863281 L 25.3125 20.863281 Z M 27.511719 15.007812 L 28.242188 15.007812 L 28.242188 20.863281 L 27.511719 20.863281 Z M 27.511719 15.007812 " fill-opacity="1" fill-rule="evenodd"/><path fill="#ffffff" d="M 23.851562 18.667969 L 29.707031 18.667969 L 29.707031 19.398438 L 23.851562 19.398438 Z M 23.851562 16.46875 L 29.707031 16.46875 L 29.707031 17.203125 L 23.851562 17.203125 Z M 23.851562 16.46875 " fill-opacity="1" fill-rule="evenodd"/><g clip-path="url(#dc79579819)"><path fill="#f4f2ed" d="M 17.109375 1.15625 C 17.660156 0.847656 18.339844 0.847656 18.886719 1.15625 C 21.605469 2.683594 29.777344 7.273438 32.496094 8.796875 C 33.046875 9.105469 33.386719 9.675781 33.386719 10.292969 C 33.386719 13.339844 33.386719 22.519531 33.386719 25.570312 C 33.386719 26.1875 33.046875 26.757812 32.496094 27.066406 C 29.78125 28.589844 21.605469 33.179688 18.886719 34.703125 C 18.335938 35.011719 17.660156 35.011719 17.109375 34.703125 C 14.394531 33.179688 6.21875 28.589844 3.5 27.066406 C 2.953125 26.757812 2.613281 26.1875 2.613281 25.570312 C 2.613281 22.519531 2.613281 13.34375 2.613281 10.292969 C 2.613281 9.675781 2.953125 9.105469 3.503906 8.796875 C 6.21875 7.273438 14.394531 2.683594 17.109375 1.15625 Z M 17.109375 1.15625 " fill-opacity="1" fill-rule="evenodd"/></g><g clip-path="url(#da175b5d29)"><path fill="#f4f2ed" d="M 2.859375 26.355469 C 2.644531 26.066406 2.613281 25.792969 2.613281 25.425781 C 2.613281 22.394531 2.613281 13.265625 2.613281 10.234375 C 2.613281 9.621094 2.953125 9.054688 3.5 8.75 C 6.207031 7.234375 14.355469 2.667969 17.0625 1.152344 C 17.609375 0.847656 18.351562 0.851562 18.902344 1.160156 C 21.609375 2.675781 29.726562 7.199219 32.433594 8.714844 C 32.652344 8.839844 32.820312 8.988281 32.96875 9.179688 Z M 2.859375 26.355469 " fill-opacity="1" fill-rule="evenodd"/></g><path fill="#f4f2ed" d="M 18 6.59375 C 24.257812 6.59375 29.335938 11.675781 29.335938 17.929688 C 29.335938 24.1875 24.257812 29.269531 18 29.269531 C 11.742188 29.269531 6.664062 24.1875 6.664062 17.929688 C 6.664062 11.675781 11.742188 6.59375 18 6.59375 Z M 18 12.261719 C 21.128906 12.261719 23.667969 14.800781 23.667969 17.929688 C 23.667969 21.058594 21.128906 23.597656 18 23.597656 C 14.871094 23.597656 12.332031 21.058594 12.332031 17.929688 C 12.332031 14.800781 14.871094 12.261719 18 12.261719 Z M 18 12.261719 " fill-opacity="1" fill-rule="evenodd"/><g clip-path="url(#e463173de6)"><path fill="#f4f2ed" d="M 32.96875 9.191406 C 33.386719 9.582031 33.378906 10.171875 33.378906 10.632812 C 33.378906 13.707031 33.351562 22.449219 33.386719 25.519531 C 33.386719 25.839844 33.28125 26.179688 33.125 26.433594 L 17.671875 17.929688 Z M 32.96875 9.191406 " fill-opacity="1" fill-rule="evenodd"/></g><g clip-path="url(#266bc77ad8)"><path fill="#590000" d="M 17.195312 2.394531 C 17.691406 2.113281 18.296875 2.113281 18.792969 2.394531 C 21.230469 3.761719 28.570312 7.882812 31.007812 9.25 C 31.503906 9.527344 31.808594 10.039062 31.808594 10.589844 C 31.808594 13.332031 31.808594 21.570312 31.808594 24.3125 C 31.808594 24.863281 31.503906 25.375 31.007812 25.652344 C 28.574219 27.019531 21.230469 31.144531 18.792969 32.507812 C 18.296875 32.789062 17.691406 32.789062 17.195312 32.507812 C 14.757812 31.144531 7.417969 27.019531 4.980469 25.652344 C 4.488281 25.375 4.179688 24.867188 4.179688 24.3125 C 4.179688 21.570312 4.179688 13.332031 4.179688 10.589844 C 4.179688 10.039062 4.488281 9.527344 4.980469 9.25 C 7.417969 7.882812 14.761719 3.761719 17.195312 2.394531 Z M 17.195312 2.394531 " fill-opacity="1" fill-rule="evenodd"/></g><g clip-path="url(#214774ae5f)"><path fill="#c64040" d="M 4.402344 25.015625 C 4.210938 24.757812 4.179688 24.507812 4.179688 24.179688 C 4.179688 21.457031 4.179688 13.265625 4.179688 10.542969 C 4.179688 9.988281 4.488281 9.480469 4.976562 9.207031 C 7.40625 7.84375 14.722656 3.75 17.152344 2.390625 C 17.648438 2.113281 18.308594 2.117188 18.804688 2.394531 C 21.234375 3.753906 28.527344 7.816406 30.953125 9.175781 C 31.152344 9.289062 31.300781 9.417969 31.4375 9.59375 Z M 4.402344 25.015625 " fill-opacity="1" fill-rule="evenodd"/></g><g clip-path="url(#079cc4e5c5)"><path fill="#a80d0d" d="M 31.433594 9.601562 C 31.808594 9.957031 31.800781 10.484375 31.800781 10.902344 C 31.800781 13.660156 31.777344 21.503906 31.808594 24.265625 C 31.8125 24.554688 31.714844 24.859375 31.570312 25.082031 L 17.699219 17.449219 Z M 31.433594 9.601562 " fill-opacity="1" fill-rule="evenodd"/></g><g clip-path="url(#f388cc1117)"><path fill="#ffffff" d="M 19.824219 6.664062 C 19.789062 6.707031 19.785156 6.816406 19.800781 7.050781 C 19.871094 7.910156 19.570312 8.90625 19.074219 9.4375 C 18.941406 9.574219 18.59375 9.863281 18.292969 10.082031 C 16.996094 11.027344 16.761719 11.214844 16.34375 11.628906 C 15.898438 12.078125 15.605469 12.464844 15.378906 12.914062 C 14.902344 13.855469 15.117188 14.945312 16.019531 16.171875 C 16.269531 16.511719 17.359375 17.601562 17.503906 17.65625 C 17.632812 17.703125 17.71875 17.648438 17.71875 17.519531 C 17.71875 17.472656 17.617188 17.210938 17.496094 16.9375 C 17.027344 15.90625 16.683594 14.652344 16.683594 13.972656 C 16.683594 13.390625 16.875 13.152344 18.28125 11.976562 C 19.511719 10.953125 20.035156 10.386719 20.339844 9.765625 C 20.730469 8.953125 20.710938 7.96875 20.28125 7.066406 C 20.078125 6.632812 19.945312 6.515625 19.824219 6.664062 Z M 19.824219 6.664062 " fill-opacity="1" fill-rule="nonzero"/></g><path fill="#ffffff" d="M 21.234375 11.027344 C 19.5625 11.761719 18.375 12.632812 17.972656 13.425781 C 17.835938 13.691406 17.816406 13.773438 17.800781 14.050781 C 17.777344 14.640625 17.9375 15.277344 18.234375 15.765625 C 18.316406 15.902344 18.507812 16.175781 18.664062 16.378906 C 19.023438 16.839844 19.0625 16.96875 18.972656 17.382812 C 18.941406 17.554688 18.867188 17.808594 18.8125 17.953125 C 18.679688 18.277344 18.6875 18.386719 18.855469 18.402344 C 18.957031 18.414062 19.023438 18.367188 19.316406 18.09375 C 20.058594 17.398438 20.390625 16.691406 20.265625 16.0625 C 20.1875 15.671875 20.082031 15.4375 19.777344 14.949219 C 19.621094 14.699219 19.460938 14.414062 19.414062 14.320312 C 19.324219 14.105469 19.316406 13.8125 19.402344 13.566406 C 19.558594 13.136719 20.179688 12.484375 21.308594 11.5625 C 21.648438 11.277344 21.933594 11.023438 21.933594 10.996094 C 21.933594 10.929688 21.824219 10.816406 21.761719 10.816406 C 21.734375 10.816406 21.5 10.914062 21.234375 11.027344 Z M 21.234375 11.027344 " fill-opacity="1" fill-rule="nonzero"/><path fill="#ffffff" d="M 23.503906 17.359375 C 23.160156 17.441406 23.023438 17.480469 22.753906 17.582031 C 22.429688 17.707031 22.335938 17.796875 22.40625 17.929688 C 22.4375 17.984375 22.507812 18.007812 22.695312 18.027344 C 23.136719 18.078125 23.375 18.136719 23.671875 18.273438 C 24.121094 18.488281 24.304688 18.808594 24.203125 19.203125 C 24.085938 19.632812 23.351562 20.441406 22.519531 21.046875 C 22.101562 21.347656 22.046875 21.417969 22.125 21.546875 C 22.175781 21.621094 22.300781 21.613281 22.664062 21.511719 C 23.675781 21.230469 24.558594 20.757812 25.027344 20.253906 C 25.464844 19.789062 25.613281 19.304688 25.488281 18.742188 C 25.351562 18.105469 25.0625 17.691406 24.601562 17.472656 C 24.414062 17.378906 24.316406 17.359375 23.980469 17.351562 C 23.761719 17.34375 23.546875 17.347656 23.503906 17.359375 Z M 23.503906 17.359375 " fill-opacity="1" fill-rule="nonzero"/><path fill="#ffffff" d="M 14.21875 17.660156 C 13.144531 17.757812 12.34375 18.023438 12.148438 18.34375 C 12.0625 18.492188 12.050781 18.769531 12.128906 18.917969 C 12.355469 19.351562 13.125 19.640625 14.5 19.808594 C 15.046875 19.878906 17.53125 19.878906 18.15625 19.808594 C 19.511719 19.664062 20.542969 19.394531 21.433594 18.964844 C 22.058594 18.664062 22.230469 18.5 22.070312 18.371094 C 22.003906 18.316406 21.890625 18.324219 21.257812 18.445312 C 19.453125 18.785156 15.535156 18.871094 14.074219 18.605469 C 13.933594 18.582031 13.824219 18.542969 13.824219 18.519531 C 13.824219 18.441406 14.761719 18.085938 15.214844 17.996094 C 15.59375 17.917969 15.691406 17.84375 15.613281 17.691406 C 15.570312 17.625 15.523438 17.613281 15.0625 17.617188 C 14.785156 17.625 14.40625 17.640625 14.21875 17.660156 Z M 14.21875 17.660156 " fill-opacity="1" fill-rule="nonzero"/><path fill="#ffffff" d="M 14.359375 20.054688 C 13.71875 20.261719 13.464844 20.496094 13.503906 20.855469 C 13.535156 21.171875 14.148438 21.492188 15.074219 21.667969 C 16.507812 21.949219 18.101562 21.863281 20.5 21.386719 C 21.425781 21.203125 21.515625 21.171875 21.515625 21.035156 C 21.515625 20.933594 21.386719 20.824219 20.855469 20.457031 L 20.597656 20.277344 L 20.019531 20.398438 C 18.660156 20.679688 17.28125 20.789062 16.039062 20.714844 C 15.386719 20.675781 14.914062 20.617188 14.648438 20.53125 C 14.535156 20.496094 14.570312 20.40625 14.738281 20.296875 C 14.894531 20.195312 14.9375 20.09375 14.847656 20.007812 C 14.785156 19.945312 14.683594 19.953125 14.359375 20.054688 Z M 14.359375 20.054688 " fill-opacity="1" fill-rule="nonzero"/><path fill="#ffffff" d="M 14.738281 22.171875 C 14.175781 22.320312 13.9375 22.699219 14.136719 23.113281 C 14.382812 23.621094 15.316406 23.90625 17.074219 24.011719 C 18.398438 24.089844 19.734375 23.902344 20.84375 23.492188 C 21.152344 23.375 21.195312 23.347656 21.207031 23.253906 C 21.222656 23.128906 21.191406 23.105469 20.570312 22.726562 L 20.0625 22.417969 L 19.574219 22.5 C 19.308594 22.542969 18.902344 22.613281 18.671875 22.652344 C 17.949219 22.773438 16.480469 22.730469 15.664062 22.558594 C 15.289062 22.484375 15.28125 22.480469 15.335938 22.378906 C 15.359375 22.332031 15.367188 22.253906 15.355469 22.203125 C 15.332031 22.117188 15.308594 22.105469 15.140625 22.109375 C 15.039062 22.109375 14.855469 22.140625 14.738281 22.171875 Z M 14.738281 22.171875 " fill-opacity="1" fill-rule="nonzero"/><path fill="#ffffff" d="M 12.632812 23.601562 C 10.945312 23.769531 10.257812 24.148438 10.5 24.789062 C 10.765625 25.484375 12.128906 25.816406 15.195312 25.925781 C 18.960938 26.058594 22.402344 25.648438 23.917969 24.890625 C 24.40625 24.644531 24.585938 24.375 24.5 24.039062 C 24.457031 23.871094 24.246094 23.65625 24.117188 23.65625 C 23.988281 23.65625 23.949219 23.734375 23.984375 23.914062 C 24.015625 24.085938 23.933594 24.140625 23.441406 24.292969 C 22.441406 24.601562 20.625 24.867188 18.777344 24.972656 C 17.753906 25.03125 15.535156 24.996094 14.65625 24.910156 C 13.414062 24.789062 12.347656 24.59375 12.050781 24.441406 L 11.941406 24.386719 L 12.039062 24.320312 C 12.171875 24.230469 12.902344 24 13.320312 23.914062 C 13.613281 23.855469 13.679688 23.824219 13.710938 23.753906 C 13.816406 23.527344 13.632812 23.503906 12.632812 23.601562 Z M 12.632812 23.601562 " fill-opacity="1" fill-rule="nonzero"/><path fill="#ffffff" d="M 24.933594 24.910156 C 24.316406 25.378906 23.097656 25.828125 21.972656 26.003906 C 20.867188 26.171875 18.058594 26.242188 15.242188 26.164062 C 13.34375 26.113281 13.324219 26.113281 13.355469 26.296875 C 13.375 26.425781 13.5 26.464844 14.300781 26.59375 C 17.054688 27.042969 19.714844 27.070312 22.328125 26.675781 C 22.96875 26.578125 23.121094 26.546875 23.5625 26.417969 C 24.066406 26.261719 24.5625 25.992188 24.878906 25.691406 C 25.277344 25.320312 25.464844 24.875 25.273438 24.769531 C 25.171875 24.71875 25.203125 24.707031 24.933594 24.910156 Z M 24.933594 24.910156 " fill-opacity="1" fill-rule="nonzero"/></svg>